<svg width="102" height="15" viewBox="0 0 102 15" fill="none" xmlns="http://www.w3.org/2000/svg">
<path d="M0.68 9.64H3.38C3.43333 10.0933 3.64 10.5067 4 10.88C4.37333 11.24 4.86 11.5267 5.46 11.74C6.06 11.94 6.73333 12.04 7.48 12.04C8.16 12.04 8.72 11.9667 9.16 11.82C9.6 11.6733 9.92667 11.4667 10.14 11.2C10.3533 10.9333 10.46 10.6133 10.46 10.24C10.46 9.88 10.3267 9.60667 10.06 9.42C9.79333 9.22 9.37333 9.06 8.8 8.94C8.22667 8.80667 7.47333 8.67333 6.54 8.54C5.80667 8.43333 5.11333 8.28667 4.46 8.1C3.80667 7.9 3.22667 7.64667 2.72 7.34C2.22667 7.03333 1.83333 6.66 1.54 6.22C1.26 5.76667 1.12 5.23333 1.12 4.62C1.12 3.86 1.33333 3.19333 1.76 2.62C2.2 2.04667 2.84667 1.6 3.7 1.28C4.55333 0.959999 5.6 0.799999 6.84 0.799999C8.70667 0.799999 10.14 1.2 11.14 2C12.1533 2.78667 12.6467 3.87333 12.62 5.26H10.02C9.96667 4.47333 9.63333 3.90667 9.02 3.56C8.42 3.21333 7.66 3.04 6.74 3.04C5.88667 3.04 5.18 3.16667 4.62 3.42C4.07333 3.67333 3.8 4.10667 3.8 4.72C3.8 4.96 3.86667 5.17333 4 5.36C4.13333 5.53333 4.36 5.68667 4.68 5.82C5 5.95333 5.43333 6.08 5.98 6.2C6.52667 6.32 7.20667 6.44 8.02 6.56C8.78 6.66667 9.46667 6.81333 10.08 7C10.7067 7.17333 11.24 7.40667 11.68 7.7C12.1333 7.98 12.48 8.34 12.72 8.78C12.96 9.22 13.08 9.76 13.08 10.4C13.08 11.1867 12.8733 11.8733 12.46 12.46C12.06 13.0333 11.4333 13.48 10.58 13.8C9.74 14.12 8.64667 14.28 7.3 14.28C6.34 14.28 5.49333 14.18 4.76 13.98C4.02667 13.7667 3.39333 13.4867 2.86 13.14C2.32667 12.7933 1.89333 12.4133 1.56 12C1.22667 11.5867 0.986667 11.1733 0.84 10.76C0.706667 10.3467 0.653333 9.97333 0.68 9.64ZM15.2667 0.0599995H17.8667V14H15.2667V0.0599995ZM26.2467 4.06L20.3267 9.28L20.3867 7.68L26.7067 14H23.4067L17.9267 8.42L22.7067 4.06H26.2467ZM32.3486 14.22C31.3619 14.22 30.4619 14.0067 29.6486 13.58C28.8486 13.14 28.2086 12.5333 27.7286 11.76C27.2619 10.9733 27.0286 10.0667 27.0286 9.04C27.0286 7.98667 27.2686 7.07333 27.7486 6.3C28.2286 5.52667 28.8753 4.92667 29.6886 4.5C30.5153 4.06 31.4486 3.84 32.4886 3.84C33.6353 3.84 34.5553 4.07333 35.2486 4.54C35.9553 4.99333 36.4686 5.61333 36.7886 6.4C37.1086 7.18667 37.2686 8.06667 37.2686 9.04C37.2686 9.62667 37.1753 10.2267 36.9886 10.84C36.8019 11.44 36.5153 12 36.1286 12.52C35.7419 13.0267 35.2353 13.44 34.6086 13.76C33.9819 14.0667 33.2286 14.22 32.3486 14.22ZM33.1886 12.22C33.9753 12.22 34.6553 12.0867 35.2286 11.82C35.8019 11.5533 36.2419 11.18 36.5486 10.7C36.8553 10.22 37.0086 9.66667 37.0086 9.04C37.0086 8.36 36.8486 7.78667 36.5286 7.32C36.2219 6.84 35.7819 6.48 35.2086 6.24C34.6486 5.98667 33.9753 5.86 33.1886 5.86C32.0819 5.86 31.2219 6.15333 30.6086 6.74C29.9953 7.31333 29.6886 8.08 29.6886 9.04C29.6886 9.68 29.8353 10.24 30.1286 10.72C30.4219 11.1867 30.8286 11.5533 31.3486 11.82C31.8819 12.0867 32.4953 12.22 33.1886 12.22ZM37.0086 4.06H39.6086V14H37.1886C37.1886 14 37.1686 13.8733 37.1286 13.62C37.1019 13.3533 37.0753 13.02 37.0486 12.62C37.0219 12.22 37.0086 11.8267 37.0086 11.44V4.06ZM41.2617 4.06H48.9817V6.08H41.2617V4.06ZM43.8217 1.34H46.4217V14H43.8217V1.34ZM59.5569 10.7H62.0769C61.9702 11.38 61.6835 11.9867 61.2169 12.52C60.7635 13.0533 60.1435 13.4733 59.3569 13.78C58.5702 14.0867 57.6102 14.24 56.4769 14.24C55.2102 14.24 54.0902 14.04 53.1169 13.64C52.1435 13.2267 51.3835 12.6333 50.8369 11.86C50.2902 11.0867 50.0169 10.1533 50.0169 9.06C50.0169 7.96667 50.2835 7.03333 50.8169 6.26C51.3502 5.47333 52.0902 4.87333 53.0369 4.46C53.9969 4.04667 55.1169 3.84 56.3969 3.84C57.7035 3.84 58.7902 4.04667 59.6569 4.46C60.5235 4.87333 61.1635 5.5 61.5769 6.34C62.0035 7.16667 62.1835 8.22667 62.1169 9.52H52.6369C52.7035 10.0267 52.8902 10.4867 53.1969 10.9C53.5169 11.3133 53.9435 11.64 54.4769 11.88C55.0235 12.12 55.6702 12.24 56.4169 12.24C57.2435 12.24 57.9302 12.1 58.4769 11.82C59.0369 11.5267 59.3969 11.1533 59.5569 10.7ZM56.2769 5.82C55.3169 5.82 54.5369 6.03333 53.9369 6.46C53.3369 6.87333 52.9502 7.38667 52.7769 8H59.5369C59.4702 7.33333 59.1502 6.80667 58.5769 6.42C58.0169 6.02 57.2502 5.82 56.2769 5.82Z" fill="black"/>
<path d="M94.0621 1.5345C94.3843 0.663886 95.6157 0.663887 95.9379 1.53451L97.0012 4.40803C97.1024 4.68175 97.3182 4.89756 97.592 4.99885L100.465 6.06215C101.336 6.38431 101.336 7.61569 100.465 7.93785L97.592 9.00115C97.3182 9.10244 97.1024 9.31825 97.0012 9.59197L95.9379 12.4655C95.6157 13.3361 94.3843 13.3361 94.0621 12.4655L92.9988 9.59197C92.8976 9.31825 92.6818 9.10244 92.408 9.00115L89.5345 7.93785C88.6639 7.61569 88.6639 6.38431 89.5345 6.06215L92.408 4.99885C92.6818 4.89756 92.8976 4.68175 92.9988 4.40803L94.0621 1.5345Z" fill="black"/>
</svg>
